HIERARCHY
ROOT Hips
{
	OFFSET 0.00000 0.00000 0.00000
	CHANNELS 6 Xposition Yposition Zposition Zrotation Yrotation Xrotation 
	JOINT LHipJoint
	{
		OFFSET 0 0 0
		CHANNELS 3 Zrotation Yrotation Xrotation
		JOINT LeftHip
		{
			OFFSET 1.57093 -1.69714 0.87455
			CHANNELS 3 Zrotation Yrotation Xrotation
			JOINT LeftKnee
			{
				OFFSET 2.48056 -6.81529 0.00000
				CHANNELS 3 Zrotation Yrotation Xrotation
				JOINT LeftAnkle
				{
					OFFSET 2.62558 -7.21374 0.00000
					CHANNELS 3 Zrotation Yrotation Xrotation
					JOINT LeftToe
					{
						OFFSET 0.17911 -0.49210 2.16707
						CHANNELS 3 Zrotation Yrotation Xrotation
						End Site
						{
							OFFSET 0.00000 -0.00000 1.11848
						}
					}
				}
			}
		}
	}
	JOINT RHipJoint
	{
		OFFSET 0 0 0
		CHANNELS 3 Zrotation Yrotation Xrotation
		JOINT RightHip
		{
			OFFSET -1.69739 -1.69715 0.87455
			CHANNELS 3 Zrotation Yrotation Xrotation
			JOINT RightKnee
			{
				OFFSET -2.33658 -6.41972 0.00000
				CHANNELS 3 Zrotation Yrotation Xrotation
				JOINT RightAnkle
				{
					OFFSET -2.60856 -7.16696 0.00000
					CHANNELS 3 Zrotation Yrotation Xrotation
					JOINT RightToe
					{
						OFFSET -0.20854 -0.57296 2.11053
						CHANNELS 3 Zrotation Yrotation Xrotation
						End Site
						{
							OFFSET -0.00000 -0.00000 1.09848
						}
					}
				}
			}
		}
	}
	JOINT lowerback
	{
		OFFSET 0 0 0
		CHANNELS 3 Zrotation Yrotation Xrotation
		JOINT Chest
		{
			OFFSET 0.02563 2.15732 -0.03270
			CHANNELS 3 Zrotation Yrotation Xrotation
			JOINT Chest2
			{
				OFFSET 0.00281 2.14662 0.09285
				CHANNELS 3 Zrotation Yrotation Xrotation
				JOINT lowerneck
				{
					OFFSET 0 0 0
					CHANNELS 3 Zrotation Yrotation Xrotation
					JOINT Neck
					{
						OFFSET -0.04440 1.68397 0.17601
						CHANNELS 3 Zrotation Yrotation Xrotation
						JOINT Head
						{
							OFFSET 0.06040 1.66995 -0.35615
							CHANNELS 3 Zrotation Yrotation Xrotation
							End Site
							{
								OFFSET 0.02405 1.72189 -0.14044
							}
						}
					}
				}
				JOINT LeftCollar
				{
					OFFSET 0 0 0
					CHANNELS 3 Zrotation Yrotation Xrotation
					JOINT LeftShoulder
					{
						OFFSET 2.98955 1.90907 -0.21660
CHANNELS 3 Zrotation Xrotation Yrotation
						JOINT LeftElbow
						{
OFFSET 0 -4.913770 0.000000
CHANNELS 3 Zrotation Xrotation Yrotation
							JOINT LeftWrist
							{
OFFSET 0 -3.002910 -0.000000
CHANNELS 3 Zrotation Xrotation Yrotation
								JOINT lhand
								{
									OFFSET 0 0 0
CHANNELS 3 Zrotation Xrotation Yrotation
									JOINT LFingers
									{
OFFSET 0 -0.450920 -0.000000
CHANNELS 3 Zrotation Xrotation Yrotation
										End Site
										{
OFFSET 0 -0.363550 -0.000000
										}
									}
								}
								JOINT LThumb
								{
OFFSET 0 0.000000 0.000000
CHANNELS 3 Zrotation Xrotation Yrotation
									End Site
									{
OFFSET 0 -0.369100 0.369100
									}
								}
							}
						}
					}
				}
				JOINT RightCollar
				{
					OFFSET 0 0 0
					CHANNELS 3 Zrotation Yrotation Xrotation
					JOINT RightShoulder
					{
						OFFSET -2.80452 1.90886 -0.21152
CHANNELS 3 Zrotation Xrotation Yrotation
						JOINT RightElbow
						{
OFFSET 0 -4.867250 0.000000
CHANNELS 3 Zrotation Xrotation Yrotation
							JOINT RightWrist
							{
OFFSET 0 -3.171440 -0.000000
CHANNELS 3 Zrotation Xrotation Yrotation
								JOINT rhand
								{
									OFFSET 0 0 0
CHANNELS 3 Zrotation Xrotation Yrotation
									JOINT RFingers
									{
OFFSET 0 -0.419370 -0.000000
CHANNELS 3 Zrotation Xrotation Yrotation
										End Site
										{
OFFSET 0 -0.338100 -0.000000
										}
									}
								}
								JOINT RThumb
								{
OFFSET 0 0.000000 0.000000
CHANNELS 3 Zrotation Xrotation Yrotation
									End Site
									{
OFFSET 0 -0.343270 0.343270
									}
								}
							}
						}
					}
				}
			}
		}
	}
}
MOTION
Frames: 5
Frame Time: 0.008333333333333333
6.321000 16.803000 19.452700 0.547700 -3.491200 16.288200 0.000000 0.000000 0.000000 -14.022600 -22.923900 -20.161700 2.890700 10.515900 30.664200 -0.282300 22.989700 -30.525800 1.075700 6.592800 18.514400 0.000000 0.000000 0.000000 11.725900 19.087900 -16.144800 -1.507300 -7.754100 21.969600 -0.640900 -8.043100 -20.129000 -0.046500 1.391800 -3.827600 -1.280300 -0.977500 -15.389500 -0.126300 -1.099600 -4.670100 0.390800 -0.549900 3.692500 -6.674800 -2.985100 -20.341100 5.938500 -3.932300 28.778500 2.790700 -1.658900 13.344400 0.000000 0.000000 0.000000 2.066900 -1.519400 -53.620200 11.455600 -18.983200 1.921500 11.892400 -7.839400 -0.576500 0.000000 0.000000 0.000000 -7.125000 0.000000 0.000000 -11.576800 30.453300 -4.188700 0.000000 0.000000 0.000000 -1.760300 -1.147900 49.348200 -10.786900 -17.960800 -1.709600 -16.317800 8.292700 1.372100 0.000000 0.000000 0.000000 7.125000 0.000000 -0.000000 8.182300 31.345500 2.756400
6.318133 16.804172 19.461321 0.536238 -3.404899 16.393775 0.000000 0.000000 0.000000 -13.950088 -23.020482 -20.230538 2.888284 10.511967 30.651030 -0.279028 22.985943 -30.542675 1.076913 6.596412 18.525097 0.000000 0.000000 0.000000 11.739826 19.028140 -16.226738 -1.504916 -7.748205 21.951959 -0.644641 -8.036397 -20.160797 -0.041482 1.314616 -3.614980 -1.249027 -0.964881 -15.396046 -0.161911 -1.085964 -4.685609 0.338246 -0.543062 3.678220 -6.510932 -2.811234 -20.512335 6.180289 -3.816309 28.981251 2.884791 -1.554212 13.457601 0.000000 0.000000 0.000000 2.061458 -1.507613 -53.369507 11.300845 -18.747909 1.871430 11.888098 -7.416045 -0.575063 0.000000 0.000000 0.000000 -7.125000 0.000000 0.000000 -11.579972 30.451851 -4.190235 0.000000 0.000000 0.000000 -1.746746 -1.135912 49.199313 -10.700439 -17.827656 -1.683048 -16.440650 8.588800 1.638267 0.000000 0.000000 0.000000 7.125000 0.000000 0.000000 8.110417 31.622679 2.677182
6.314744 16.802700 19.477115 0.530779 -3.364438 16.408510 0.000000 0.000000 0.000000 -13.950993 -23.025465 -20.180978 2.886921 10.509710 30.643606 -0.277500 22.990006 -30.559337 1.064844 6.560477 18.419531 0.000000 0.000000 0.000000 11.779419 19.006143 -16.174479 -1.505835 -7.750381 21.958386 -0.648802 -8.058333 -20.220909 -0.041554 1.315476 -3.617234 -1.242006 -0.952971 -15.541635 -0.156427 -1.068800 -4.661964 0.340744 -0.534900 3.780905 -5.927741 -2.550987 -20.931881 5.491902 -3.465339 30.512471 2.609115 -1.430414 14.148446 0.000000 0.000000 0.000000 2.028612 -1.549737 -53.654047 11.344139 -18.813842 1.885398 11.836123 -7.624518 -0.576517 0.000000 0.000000 0.000000 -7.125000 0.000000 0.000000 -11.620675 30.452331 -4.205398 0.000000 0.000000 0.000000 -1.720698 -1.188357 49.053068 -10.706892 -17.837638 -1.685079 -16.385304 8.686001 1.701803 0.000000 0.000000 0.000000 7.125000 0.000000 0.000000 8.160715 31.686961 2.681409
6.312033 16.802049 19.494338 0.525402 -3.312347 16.395253 0.000000 0.000000 0.000000 -13.964120 -23.038293 -20.091754 2.887816 10.511216 30.648633 -0.254529 22.932805 -30.632795 1.075002 6.590588 18.507925 0.000000 0.000000 0.000000 11.838506 18.902155 -16.104909 -1.506184 -7.751267 21.961202 -0.655073 -8.023921 -20.254893 -0.042816 1.335931 -3.673676 -1.193763 -0.952838 -15.723913 -0.123909 -1.074958 -4.699491 0.344227 -0.537871 3.838768 -5.437657 -2.317825 -20.934716 4.454431 -3.020319 32.480198 2.225430 -1.340469 14.969920 0.000000 0.000000 0.000000 1.957266 -1.600210 -53.823728 11.422944 -18.933649 1.910920 11.886367 -7.870139 -0.624365 0.000000 0.000000 0.000000 -7.125000 0.000000 0.000000 -11.587297 30.501214 -4.179080 0.000000 0.000000 0.000000 -1.657658 -1.244326 49.094304 -10.741998 -17.891757 -1.695838 -16.362724 8.520322 1.699972 0.000000 0.000000 0.000000 7.125000 0.000000 0.000000 8.178485 31.684572 2.687773
6.308565 16.801746 19.505465 0.512718 -3.230695 16.354291 0.000000 0.000000 0.000000 -13.964773 -23.057806 -19.996948 2.887242 10.510296 30.645489 -0.257273 22.937867 -30.621722 1.061305 6.549814 18.388269 0.000000 0.000000 0.000000 11.913126 18.818073 -16.016310 -1.507658 -7.754938 21.972126 -0.661096 -8.025211 -20.316093 -0.042646 1.332872 -3.665031 -1.155890 -0.950615 -15.907200 -0.123092 -1.074719 -4.671833 0.320699 -0.538065 3.965448 -5.289241 -2.195408 -20.645930 4.260558 -2.926512 34.698233 2.188575 -1.331364 15.948844 0.000000 0.000000 0.000000 1.922969 -1.877271 -53.916141 11.416426 -18.923706 1.908742 11.802015 -7.834985 -0.632609 0.000000 0.000000 0.000000 -7.125000 0.000000 0.000000 -11.654136 30.507836 -4.202176 0.000000 0.000000 0.000000 -1.582604 -1.371480 49.377721 -10.812936 -18.000862 -1.717615 -16.327588 8.205368 1.672826 0.000000 0.000000 0.000000 7.125000 0.000000 0.000000 8.203716 31.655849 2.701950
